<svg height="512" viewBox="0 0 128 128" width="512" xmlns="http://www.w3.org/2000/svg"><path d="m105.9 49.027-35.824-29.592a9.555 9.555 0 0 0 -12.152 0l-35.824 29.592a13.306 13.306 0 0 0 -4.85 10.291v42.841a8.6 8.6 0 0 0 8.591 8.591h24.117a1.75 1.75 0 0 0 1.75-1.75v-27.353a6.757 6.757 0 0 1 6.749-6.747h11.086a6.757 6.757 0 0 1 6.749 6.749v27.351a1.75 1.75 0 0 0 1.75 1.75h24.117a8.6 8.6 0 0 0 8.591-8.591v-42.841a13.306 13.306 0 0 0 -4.85-10.291zm1.348 53.132a5.1 5.1 0 0 1 -5.091 5.091h-22.365v-25.6a10.261 10.261 0 0 0 -10.249-10.25h-11.086a10.261 10.261 0 0 0 -10.249 10.247v25.6h-22.367a5.1 5.1 0 0 1 -5.091-5.091v-42.838a9.817 9.817 0 0 1 3.576-7.591l35.826-29.593a6.047 6.047 0 0 1 7.7 0l35.826 29.593a9.817 9.817 0 0 1 3.576 7.591z"/></svg>